<?xml version="1.0" encoding="UTF-8" standalone="no"?>
<svg
   xmlns:dc="http://purl.org/dc/elements/1.1/"
   xmlns:cc="http://creativecommons.org/ns#"
   xmlns:rdf="http://www.w3.org/1999/02/22-rdf-syntax-ns#"
   xmlns:svg="http://www.w3.org/2000/svg"
   xmlns="http://www.w3.org/2000/svg"
   xmlns:sodipodi="http://sodipodi.sourceforge.net/DTD/sodipodi-0.dtd"
   xmlns:inkscape="http://www.inkscape.org/namespaces/inkscape"
   width="39"
   height="42"
   viewBox="0 0 39 42"
   version="1.1"
   id="svg32"
   sodipodi:docname="isotipo.svg"
   inkscape:version="0.92.5 (2060ec1f9f, 2020-04-08)"
   style="fill:none">
  <metadata
     id="metadata38">
    <rdf:RDF>
      <cc:Work
         rdf:about="">
        <dc:format>image/svg+xml</dc:format>
        <dc:type
           rdf:resource="http://purl.org/dc/dcmitype/StillImage" />
        <dc:title></dc:title>
      </cc:Work>
    </rdf:RDF>
  </metadata>
  <defs
     id="defs36" />
  <sodipodi:namedview
     pagecolor="#ffffff"
     bordercolor="#666666"
     borderopacity="1"
     objecttolerance="10"
     gridtolerance="10"
     guidetolerance="10"
     inkscape:pageopacity="0"
     inkscape:pageshadow="2"
     inkscape:window-width="1366"
     inkscape:window-height="704"
     id="namedview34"
     showgrid="false"
     inkscape:zoom="4.1837151"
     inkscape:cx="51.274659"
     inkscape:cy="20.027109"
     inkscape:window-x="0"
     inkscape:window-y="27"
     inkscape:window-maximized="1"
     inkscape:current-layer="layer1" />
  <g
     inkscape:groupmode="layer"
     id="layer2"
     inkscape:label="main"
     style="display:none"
     sodipodi:insensitive="true"
     transform="translate(0,2)">
    <path
       inkscape:connector-curvature="0"
       d="m 65.234688,28.359402 c -1.92,2.029 -4.3886,2.8985 -7.1314,2.8985 -6.9943,0 -9.874298,-5.0724 -9.874298,-10.1449 0,-5.2174 3.154298,-10.434799 9.874298,-10.434799 2.4685,0 4.9371,1.0145 6.8571,3.0435 l -2.3314,2.463799 c -1.2343,-1.3044 -2.88,-1.884099 -4.5257,-1.884099 -4.5258,0 -6.4458,3.623199 -6.4458,6.811599 0,3.3333 1.7829,6.6667 6.4458,6.6667 1.6457,0 3.4285,-0.7247 4.6628,-2.029 z"
       id="path2"
       style="fill:#5476b5;fill-opacity:1" />
    <path
       inkscape:connector-curvature="0"
       d="m 85.531788,21.113002 c 0,5.0725 -3.0171,10.1449 -9.6,10.1449 -6.5828,0 -9.6,-4.9275 -9.6,-10.1449 0,-5.2174 3.1543,-10.434799 9.6,-10.434799 6.4457,0 9.7372,5.217399 9.6,10.434799 z m -15.6343,0 c 0.1372,3.1884 1.7829,6.6667 6.1715,6.6667 4.3885,0 6.0343,-3.4783 6.1714,-6.6667 0,-3.3333 -1.6457,-7.101499 -6.1714,-7.101499 -4.5257,0 -6.3086,3.768199 -6.1715,7.101499 z"
       id="path4"
       style="fill:#5476b5;fill-opacity:1" />
    <path
       inkscape:connector-curvature="0"
       d="m 104.59509,20.823102 c 0.137,4.9276 -2.743,10 -9.326102,10 -2.3315,0 -5.0743,0 -7.2686,0 V 11.113003 c 2.3314,0 5.0743,0 7.2686,0 6.308102,0 9.188102,4.782599 9.326102,9.710099 z m -13.166102,6.3768 h 3.84 c 4.2514,0 5.897102,-3.3333 5.897102,-6.5217 -0.1371,-3.0435 -1.782802,-6.0869 -5.897102,-6.0869 h -3.84 z"
       id="path6"
       style="fill:#5476b5;fill-opacity:1" />
    <path
       inkscape:connector-curvature="0"
       d="m 120.77709,30.823102 h -13.988 c 0,-6.5217 0,-13.1884 0,-19.710099 h 13.988 v 3.623199 h -10.422 v 4.4927 h 10.148 v 3.4783 h -10.148 v 4.4927 h 10.422 z"
       id="path8"
       style="fill:#5476b5;fill-opacity:1" />
    <path
       inkscape:connector-curvature="0"
       d="m 141.48609,14.881102 c -1.371,-2.318799 -3.566,-2.608699 -5.76,-2.608699 -2.194,0 -5.623,0.8696 -5.623,4.057999 0,2.4637 2.606,3.0435 5.76,3.7681 3.566,0.7246 7.269,1.4493 7.269,5.6522 0,4.4927 -4.252,5.5072 -7.406,5.5072 -2.88,0 -6.171,-1.3043 -7.68,-4.3478 l 1.234,-0.7246 c 1.097,2.4637 4.115,3.6231 6.309,3.6231 2.331,0 5.897,-0.7246 5.897,-4.2029 0,-2.8985 -3.017,-3.6231 -6.171,-4.2029 -3.429,-0.7246 -6.858,-1.4492 -6.858,-5.0724 0.138,-4.202899 4.252,-5.507299 7.269,-5.507299 2.606,0 4.937,0.4348 6.857,3.3334 z"
       id="path10"
       style="fill:#5476b5;fill-opacity:1" />
    <path
       inkscape:connector-curvature="0"
       d="m 164.25208,20.968102 c 0,5.2174 -3.155,10.1449 -9.463,10.1449 -6.30899,0 -9.46299,-5.0725 -9.46299,-10.2899 0,-5.3623 3.154,-10.144899 9.46299,-10.144899 6.308,0.1449 9.463,4.927599 9.463,10.289899 z m -17.41699,0 c 0,4.4927 2.74199,8.8406 7.95399,8.8406 5.348,0 8.091,-4.3479 8.091,-8.8406 0,-4.6377 -2.605,-8.695699 -8.091,-8.695699 -5.486,0 -7.95399,4.057999 -7.95399,8.695699 z"
       id="path12"
       style="fill:#5476b5;fill-opacity:1" />
    <path
       inkscape:connector-curvature="0"
       d="m 183.04008,28.069502 c -1.92,2.029 -4.388,2.8986 -6.857,2.8986 -6.308,0 -9.6,-4.6377 -9.6,-10 0,-5.2174 3.154,-10.144999 9.6,-10.144999 2.469,0 4.937,1.0145 6.857,2.8986 l -0.96,0.869499 c -1.645,-1.739099 -3.703,-2.463699 -5.76,-2.463699 -5.485,0 -8.228,4.057999 -8.228,8.840599 0,4.6376 2.88,8.6956 8.228,8.6956 2.057,0 4.252,-0.8696 5.897,-2.4638 z"
       id="path14"
       style="fill:#5476b5;fill-opacity:1" />
    <path
       inkscape:connector-curvature="0"
       d="M 186.46908,30.823102 V 11.113003 h 1.371 v 19.710099 z"
       id="path16"
       style="fill:#5476b5;fill-opacity:1" />
    <path
       inkscape:connector-curvature="0"
       d="m 193.46308,20.243402 h 10.972 v 1.4493 h -10.972 v 7.8261 h 11.794 v 1.4493 h -13.165 V 11.113003 h 12.891 v 1.4493 h -11.52 z"
       id="path18"
       style="fill:#5476b5;fill-opacity:1" />
    <path
       inkscape:connector-curvature="0"
       d="m 214.85708,12.417303 h -6.72 v -1.3043 h 14.949 v 1.3043 h -6.72 v 18.405799 h -1.509 z"
       id="path20"
       style="fill:#5476b5;fill-opacity:1" />
    <path
       inkscape:connector-curvature="0"
       d="m 232.54908,22.852102 -7.269,-11.739099 h 1.646 l 6.309,10.434799 6.308,-10.434799 h 1.646 l -7.269,11.739099 v 7.8261 h -1.508 v -7.8261 z"
       id="path22"
       style="fill:#5476b5;fill-opacity:1" />
    <path
       inkscape:connector-curvature="0"
       d="M 16.68609,40.678202 1.3260902,30.388302 V 10.388343 L 16.68609,0.67820259 32.59469,10.388343 v 19.999959 z m -13.0285698,-11.7391 13.0285698,8.8406 13.5771,-8.8406 V 11.692703 L 16.68609,3.4318226 3.6575202,11.692703 Z"
       id="path24"
       style="fill:#5476b5;fill-opacity:1" />
    <path
       inkscape:connector-curvature="0"
       d="m 11.33749,23.866602 -1.5085698,1.5942 -4.25143,-4.4927 v -0.2899 l 4.25143,-4.4928 1.5085698,1.5943 v 0.1449 l -2.8799998,2.8985 z"
       id="path26"
       style="fill:#5476b5;fill-opacity:1" />
    <path
       inkscape:connector-curvature="0"
       d="m 20.66319,12.127503 -6.1714,16.521699 h -2.3314 l 6.1714,-16.521699 z"
       id="path28"
       style="fill:#5476b5;fill-opacity:1" />
    <path
       inkscape:connector-curvature="0"
       d="m 24.50319,20.968102 -2.88,-2.8986 v -0.1449 l 1.5086,-1.5942 4.2514,4.4928 v 0.2898 l -4.2514,4.4928 -1.5086,-1.5942 v -0.145 z"
       id="path30"
       style="fill:#5476b5;fill-opacity:1" />
  </g>
  <g
     inkscape:groupmode="layer"
     id="layer1"
     inkscape:label="iso"
     style="display:inline"
     transform="translate(0,2)">
    <path
       inkscape:connector-curvature="0"
       d="M 18.655278,39.71831 3.295279,29.42841 V 9.4284507 l 15.359999,-9.71013997 15.9086,9.71013997 V 29.42841 Z m -13.028569,-11.7391 13.028569,8.8406 13.5771,-8.8406 V 10.732811 L 18.655278,2.4719308 5.626709,10.732811 Z"
       id="path24-5"
       style="display:inline;fill:#ffffff;fill-opacity:1" />
    <path
       inkscape:connector-curvature="0"
       d="m 13.306678,22.90671 -1.50857,1.5942 -4.25143,-4.4927 v -0.2899 l 4.25143,-4.4928 1.50857,1.5943 v 0.1449 l -2.88,2.8985 z"
       id="path26-3"
       style="display:inline;fill:#ffffff;fill-opacity:1" />
    <path
       inkscape:connector-curvature="0"
       d="m 22.632378,11.167611 -6.1714,16.521699 h -2.3314 l 6.1714,-16.521699 z"
       id="path28-5"
       style="display:inline;fill:#ffffff;fill-opacity:1" />
    <path
       inkscape:connector-curvature="0"
       d="m 26.472378,20.00821 -2.88,-2.8986 v -0.1449 l 1.5086,-1.5942 4.2514,4.4928 v 0.2898 l -4.2514,4.4928 -1.5086,-1.5942 v -0.145 z"
       id="path30-6"
       style="display:inline;fill:#ffffff;fill-opacity:1" />
  </g>
</svg>
