<?xml version="1.0" encoding="UTF-8" standalone="no"?>
<svg
   xmlns:dc="http://purl.org/dc/elements/1.1/"
   xmlns:cc="http://creativecommons.org/ns#"
   xmlns:rdf="http://www.w3.org/1999/02/22-rdf-syntax-ns#"
   xmlns:svg="http://www.w3.org/2000/svg"
   xmlns="http://www.w3.org/2000/svg"
   xmlns:sodipodi="http://sodipodi.sourceforge.net/DTD/sodipodi-0.dtd"
   xmlns:inkscape="http://www.inkscape.org/namespaces/inkscape"
   width="240"
   height="40"
   viewBox="0 0 240 40"
   fill="none"
   version="1.1"
   id="svg32"
   sodipodi:docname="logotipo.svg"
   inkscape:version="0.92.5 (2060ec1f9f, 2020-04-08)">
  <metadata
     id="metadata38">
    <rdf:RDF>
      <cc:Work
         rdf:about="">
        <dc:format>image/svg+xml</dc:format>
        <dc:type
           rdf:resource="http://purl.org/dc/dcmitype/StillImage" />
      </cc:Work>
    </rdf:RDF>
  </metadata>
  <defs
     id="defs36" />
  <sodipodi:namedview
     pagecolor="#ffffff"
     bordercolor="#666666"
     borderopacity="1"
     objecttolerance="10"
     gridtolerance="10"
     guidetolerance="10"
     inkscape:pageopacity="0"
     inkscape:pageshadow="2"
     inkscape:window-width="1366"
     inkscape:window-height="704"
     id="namedview34"
     showgrid="false"
     inkscape:zoom="1.4791667"
     inkscape:cx="43.267606"
     inkscape:cy="20"
     inkscape:window-x="0"
     inkscape:window-y="27"
     inkscape:window-maximized="1"
     inkscape:current-layer="svg32" />
  <path
     d="M63.9086 27.6812C61.9886 29.7102 59.52 30.5797 56.7772 30.5797C49.7829 30.5797 46.9029 25.5073 46.9029 20.4348C46.9029 15.2174 50.0572 10 56.7772 10C59.2457 10 61.7143 11.0145 63.6343 13.0435L61.3029 15.5073C60.0686 14.2029 58.4229 13.6232 56.7772 13.6232C52.2514 13.6232 50.3314 17.2464 50.3314 20.4348C50.3314 23.7681 52.1143 27.1015 56.7772 27.1015C58.4229 27.1015 60.2057 26.3768 61.44 25.0725L63.9086 27.6812Z"
     fill="#7D69B6"
     id="path2"
     style="fill:#5476b5;fill-opacity:1" />
  <path
     d="M84.2057 20.4348C84.2057 25.5073 81.1886 30.5797 74.6057 30.5797C68.0229 30.5797 65.0057 25.6522 65.0057 20.4348C65.0057 15.2174 68.16 10 74.6057 10C81.0514 10 84.3429 15.2174 84.2057 20.4348ZM68.5714 20.4348C68.7086 23.6232 70.3543 27.1015 74.7429 27.1015C79.1314 27.1015 80.7772 23.6232 80.9143 20.4348C80.9143 17.1015 79.2686 13.3333 74.7429 13.3333C70.2172 13.3333 68.4343 17.1015 68.5714 20.4348Z"
     id="path4"
     style="fill:#5476b5;fill-opacity:1"
     fill="#7D69B6" />
  <path
     d="M103.269 20.1449C103.406 25.0725 100.526 30.1449 93.9429 30.1449C91.6114 30.1449 88.8686 30.1449 86.6743 30.1449V10.4348C89.0057 10.4348 91.7486 10.4348 93.9429 10.4348C100.251 10.4348 103.131 15.2174 103.269 20.1449ZM90.1029 26.5217H93.9429C98.1943 26.5217 99.84 23.1884 99.84 20C99.7029 16.9565 98.0572 13.9131 93.9429 13.9131H90.1029V26.5217Z"
     fill="#7D69B6"
     id="path6"
     style="fill:#5476b5;fill-opacity:1" />
  <path
     d="M119.451 30.1449H105.463C105.463 23.6232 105.463 16.9565 105.463 10.4348H119.451V14.058H109.029V18.5507H119.177V22.029H109.029V26.5217H119.451V30.1449Z"
     fill="#7D69B6"
     id="path8"
     style="fill:#5476b5;fill-opacity:1" />
  <path
     d="M140.16 14.2029C138.789 11.8841 136.594 11.5942 134.4 11.5942C132.206 11.5942 128.777 12.4638 128.777 15.6522C128.777 18.1159 131.383 18.6957 134.537 19.4203C138.103 20.1449 141.806 20.8696 141.806 25.0725C141.806 29.5652 137.554 30.5797 134.4 30.5797C131.52 30.5797 128.229 29.2754 126.72 26.2319L127.954 25.5073C129.051 27.971 132.069 29.1304 134.263 29.1304C136.594 29.1304 140.16 28.4058 140.16 24.9275C140.16 22.029 137.143 21.3044 133.989 20.7246C130.56 20 127.131 19.2754 127.131 15.6522C127.269 11.4493 131.383 10.1449 134.4 10.1449C137.006 10.1449 139.337 10.5797 141.257 13.4783L140.16 14.2029Z"
     fill="#7D69B6"
     id="path10"
     style="fill:#5476b5;fill-opacity:1" />
  <path
     d="M162.926 20.2899C162.926 25.5073 159.771 30.4348 153.463 30.4348C147.154 30.4348 144 25.3623 144 20.1449C144 14.7826 147.154 10 153.463 10C159.771 10.1449 162.926 14.9276 162.926 20.2899ZM145.509 20.2899C145.509 24.7826 148.251 29.1305 153.463 29.1305C158.811 29.1305 161.554 24.7826 161.554 20.2899C161.554 15.6522 158.949 11.5942 153.463 11.5942C147.977 11.5942 145.509 15.6522 145.509 20.2899Z"
     fill="#7D69B6"
     id="path12"
     style="fill:#5476b5;fill-opacity:1" />
  <path
     d="M181.714 27.3913C179.794 29.4203 177.326 30.2899 174.857 30.2899C168.549 30.2899 165.257 25.6522 165.257 20.2899C165.257 15.0725 168.411 10.1449 174.857 10.1449C177.326 10.1449 179.794 11.1594 181.714 13.0435L180.754 13.913C179.109 12.1739 177.051 11.4493 174.994 11.4493C169.509 11.4493 166.766 15.5073 166.766 20.2899C166.766 24.9275 169.646 28.9855 174.994 28.9855C177.051 28.9855 179.246 28.1159 180.891 26.5217L181.714 27.3913Z"
     fill="#7D69B6"
     id="path14"
     style="fill:#5476b5;fill-opacity:1" />
  <path
     d="M185.143 30.1449V10.4348H186.514V30.1449H185.143Z"
     fill="#7D69B6"
     id="path16"
     style="fill:#5476b5;fill-opacity:1" />
  <path
     d="M192.137 19.5652H203.109V21.0145H192.137V28.8406H203.931V30.2899H190.766V10.4348H203.657V11.8841H192.137V19.5652Z"
     fill="#7D69B6"
     id="path18"
     style="fill:#5476b5;fill-opacity:1" />
  <path
     d="M213.531 11.7391H206.811V10.4348H221.76V11.7391H215.04V30.1449H213.531V11.7391Z"
     fill="#7D69B6"
     id="path20"
     style="fill:#5476b5;fill-opacity:1" />
  <path
     d="M231.223 22.1739L223.954 10.4348H225.6L231.909 20.8696L238.217 10.4348H239.863L232.594 22.1739V30H231.086V22.1739H231.223Z"
     fill="#7D69B6"
     id="path22"
     style="fill:#5476b5;fill-opacity:1" />
  <path
     d="M15.36 40L0 29.7101V9.71014L15.36 0L31.2686 9.71014V29.7101L15.36 40ZM2.33143 28.2609L15.36 37.1015L28.9371 28.2609V11.0145L15.36 2.75362L2.33143 11.0145V28.2609Z"
     fill="#7D69B6"
     id="path24"
     style="fill:#5476b5;fill-opacity:1" />
  <path
     d="M10.0114 23.1884L8.50283 24.7826L4.2514 20.2899V20L8.50283 15.5072L10.0114 17.1015V17.2464L7.1314 20.1449L10.0114 23.1884Z"
     fill="#7D69B6"
     id="path26"
     style="fill:#5476b5;fill-opacity:1" />
  <path
     d="M19.3371 11.4493L13.1657 27.971H10.8343L17.0057 11.4493H19.3371Z"
     fill="#7D69B6"
     id="path28"
     style="fill:#5476b5;fill-opacity:1" />
  <path
     d="M23.1771 20.2899L20.2971 17.3913V17.2464L21.8057 15.6522L26.0571 20.145V20.4348L21.8057 24.9276L20.2971 23.3334V23.1884L23.1771 20.2899Z"
     fill="#7D69B6"
     id="path30"
     style="fill:#5476b5;fill-opacity:1" />
</svg>
